<?xml version="1.0" encoding="UTF-8"?>
<svg xmlns="http://www.w3.org/2000/svg">
    <title>NACA 2415</title>
    <path d="M10000 0 L9928.01 -17.8847 L9798.9 -49.512 L9635.18 -88.7659 L9445.47 -133.048 L9235 -180.838 L9007.5 -230.844 L8765.83 -282.131 L8512.33 -334.04 L8248.94 -385.985 L7977.36 -437.269 L7699.06 -487.658 L7415.37 -536.837 L7127.49 -584.149 L6836.5 -629.525 L6543.42 -672.716 L6249.18 -713.457 L5954.66 -751.512 L5660.68 -786.672 L5368.01 -818.749 L5077.38 -847.579 L4789.49 -873.018 L4505.01 -894.758 L4224.57 -912.572 L3948.78 -926.515 L3678.23 -935.98 L3413.48 -940.674 L3155.07 -939.766 L2903.52 -934.002 L2659.36 -923.636 L2423.07 -908.376 L2195.13 -888.03 L1976 -863.554 L1766.14 -834.875 L1565.99 -801.456 L1375.98 -764.619 L1196.53 -724.324 L1028.04 -680.025 L870.931 -633.2 L725.582 -583.776 L592.379 -531.203 L471.7 -477.076 L363.913 -421.418 L269.381 -363.154 L188.458 -304.245 L121.494 -245.257 L68.832 -183.4 L30.8087 -120.657 L7.75592 -56.6333 L0 -0.136863 L7.75592 55.0843 L30.8087 114.524 L68.832 169.759 L121.494 221.329 L188.458 267.464 L269.381 311.125 L363.913 351.958 L471.7 388.345 L592.379 421.573 L725.582 451.85 L870.931 478.057 L1028.04 500.96 L1196.53 520.852 L1375.98 536.88 L1565.99 549.738 L1766.14 559.683 L1976 566.131 L2195.13 569.698 L2423.07 570.645 L2659.36 568.734 L2903.52 564.342 L3155.07 557.827 L3413.48 549.314 L3678.23 538.833 L3948.78 526.854 L4224.57 513.255 L4505.01 497.636 L4789.49 479.996 L5077.38 460.591 L5368.01 439.69 L5660.68 417.473 L5954.66 394.125 L6249.18 369.825 L6543.42 344.746 L6836.5 319.056 L7127.49 292.914 L7415.37 266.465 L7699.06 239.806 L7977.36 213.148 L8248.94 186.628 L8512.33 160.364 L8765.83 134.582 L9007.5 109.5 L9235 85.3769 L9445.47 62.5762 L9635.18 41.6142 L9798.9 23.1578 L9928.01 8.35246 L10000 0 Z" style="fill:#6495ed; stroke:#6495ed; stroke-width:2"/>
</svg>
